<svg xmlns="http://www.w3.org/2000/svg" width="179.101" height="40.584" viewBox="0 0 179.101 40.584">
  <g id="Calque_1-2" transform="translate(0 -0.01)">
    <path id="Tracé_980" data-name="Tracé 980" d="M6.268,25.327h0a6.5,6.5,0,0,1,.8-3.247,5.691,5.691,0,0,1,2.222-2.222,6.5,6.5,0,0,1,3.247-.8,6,6,0,0,1,4.472,1.769,6.141,6.141,0,0,1,1.742,4.5V41.111h6.268V23.957a10.464,10.464,0,0,0-1.37-5.152,11.253,11.253,0,0,0-3.765-4.046,9.779,9.779,0,0,0-5.47-1.569,10.571,10.571,0,0,0-5.443,1.4,10.051,10.051,0,0,0-2.7,2.259V13.761H0V41.111H6.268V25.327Z" transform="translate(0 -1.224)" fill="#1d1e3a"/>
    <path id="Tracé_981" data-name="Tracé 981" d="M57.895,38.108V41.1h6.268V13.761H57.895v3.048a10.347,10.347,0,0,0-2.821-2.277,11.325,11.325,0,0,0-5.552-1.343,12.208,12.208,0,0,0-6.695,1.9A13.61,13.61,0,0,0,38.1,20.22a15.017,15.017,0,0,0-1.742,7.266,14.743,14.743,0,0,0,1.742,7.2,13.4,13.4,0,0,0,4.726,5.1,12.339,12.339,0,0,0,6.695,1.878,11.442,11.442,0,0,0,5.588-1.343A10.074,10.074,0,0,0,57.9,38.09ZM50.547,35.75A7.63,7.63,0,0,1,46.529,34.7a7.342,7.342,0,0,1-2.73-2.93,9.118,9.118,0,0,1-1-4.327,9.118,9.118,0,0,1,1-4.327,7.405,7.405,0,0,1,2.73-2.93,7.63,7.63,0,0,1,4.019-1.052,7.827,7.827,0,0,1,4.073,1.052,7.155,7.155,0,0,1,2.7,2.93,9.328,9.328,0,0,1,.971,4.327,8.461,8.461,0,0,1-2.141,5.978,7.238,7.238,0,0,1-5.615,2.34Z" transform="translate(-3.377 -1.224)" fill="#1d1e3a"/>
    <path id="Tracé_982" data-name="Tracé 982" d="M96.654,13.82,89.143,31.309,81.668,13.82H74.72L87.2,41.169h3.647L103.321,13.82Z" transform="translate(-6.94 -1.283)" fill="#1d1e3a"/>
    <rect id="Rectangle_406" data-name="Rectangle 406" width="6.268" height="27.349" transform="translate(103.438 12.537)" fill="#1d1e3a"/>
    <path id="Tracé_983" data-name="Tracé 983" d="M117.111,7.521a3.533,3.533,0,0,0,2.676-1.079,3.764,3.764,0,0,0,1.025-2.676,3.749,3.749,0,0,0-1.025-2.676,3.823,3.823,0,0,0-5.325,0,3.673,3.673,0,0,0-1.052,2.676,3.7,3.7,0,0,0,1.052,2.676,3.522,3.522,0,0,0,2.649,1.079Z" transform="translate(-10.534 0)" fill="#1d1e3a"/>
    <path id="Tracé_984" data-name="Tracé 984" d="M192.6,34.617a14.056,14.056,0,0,0,1.9-7.239,13.855,13.855,0,0,0-1.9-7.2,14.1,14.1,0,0,0-5.152-5.1,14.319,14.319,0,0,0-7.293-1.878,13.963,13.963,0,0,0-7.239,1.9,14.38,14.38,0,0,0-5.152,5.1,13.735,13.735,0,0,0-1.9,7.175,14.056,14.056,0,0,0,1.9,7.239,14.243,14.243,0,0,0,5.152,5.152,14.056,14.056,0,0,0,7.239,1.9A14.153,14.153,0,0,0,192.6,34.617Zm-5.524-2.966a7.247,7.247,0,0,1-2.794,2.93,7.961,7.961,0,0,1-4.127,1.052,7.85,7.85,0,0,1-4.073-1.052,7.307,7.307,0,0,1-2.794-2.93,9,9,0,0,1-1-4.273,8.68,8.68,0,0,1,1-4.218,7.34,7.34,0,0,1,2.794-2.876,8.461,8.461,0,0,1,8.173,0,7.729,7.729,0,0,1,2.794,2.876,8.493,8.493,0,0,1,1.025,4.218A9,9,0,0,1,187.077,31.651Z" transform="translate(-15.406 -1.225)" fill="#00b0e7"/>
    <path id="Tracé_985" data-name="Tracé 985" d="M134.1,37.661a14.088,14.088,0,0,0,4.454,3.039,14.443,14.443,0,0,0,12.346-.553,11.658,11.658,0,0,0,4.762-5.025,16.766,16.766,0,0,0,1.66-7.756v-2H142.109V31h8.881a7.231,7.231,0,0,1-.59,1.56,6.055,6.055,0,0,1-2.44,2.558,8.177,8.177,0,0,1-3.982.9,7.44,7.44,0,0,1-6.858-4.037,9.427,9.427,0,0,1-1.043-4.445,9.54,9.54,0,0,1,1.025-4.454,7.438,7.438,0,0,1,2.866-2.957,8.106,8.106,0,0,1,4.245-1.089,8.474,8.474,0,0,1,3.728.816,6.7,6.7,0,0,1,2.631,2.3l1.107,1.642,4.245-4.282-.862-1.125a12.673,12.673,0,0,0-4.717-3.792,14.766,14.766,0,0,0-11.729-.245,13.715,13.715,0,0,0-4.472,3.057,14.116,14.116,0,0,0-2.993,4.527A14.724,14.724,0,0,0,134.1,37.661Z" transform="translate(-12.084 -1.23)" fill="#00b0e7"/>
  </g>
</svg>
